<?xml version="1.0" encoding="UTF-8"?>
<!DOCTYPE svg PUBLIC "-//W3C//DTD SVG 1.1//EN" "http://www.w3.org/Graphics/SVG/1.1/DTD/svg11.dtd">
<svg xmlns="http://www.w3.org/2000/svg" version="1.1" width="500px" height="500px" style="shape-rendering:geometricPrecision; text-rendering:geometricPrecision; image-rendering:optimizeQuality; fill-rule:evenodd; clip-rule:evenodd" xmlns:xlink="http://www.w3.org/1999/xlink">
<g><path style="opacity:0.858" fill="#000000" d="M 406.5,167.5 C 417.704,166.213 427.371,169.379 435.5,177C 428,181.604 420,182.604 411.5,180C 405.847,178.177 400.847,175.344 396.5,171.5C 399.855,169.944 403.188,168.61 406.5,167.5 Z"/></g>
<g><path style="opacity:0.947" fill="#000000" d="M 383.5,179.5 C 392.577,185.869 402.577,190.369 413.5,193C 423.804,194.307 433.804,193.14 443.5,189.5C 451.515,204.715 449.682,218.715 438,231.5C 436.951,232.517 435.784,232.684 434.5,232C 417.732,219.224 399.565,216.724 380,224.5C 376.454,221.774 374.121,218.107 373,213.5C 370.843,205.924 371.51,198.591 375,191.5C 377.664,187.343 380.497,183.343 383.5,179.5 Z"/></g>
<g><path style="opacity:0.973" fill="#000000" d="M 13.5,180.5 C 38.5089,180.167 63.5089,180.5 88.5,181.5C 86.1667,194.167 83.8333,206.833 81.5,219.5C 75.5368,220.496 69.5368,220.829 63.5,220.5C 59.7606,244.199 55.7606,267.865 51.5,291.5C 51.3053,293.725 52.1387,295.391 54,296.5C 56.8937,295.303 59.727,293.97 62.5,292.5C 62.8333,293.167 63.1667,293.833 63.5,294.5C 61.3386,306.316 58.3386,317.816 54.5,329C 41.5372,332.898 28.8706,332.231 16.5,327C 8.97869,321.782 6.14535,314.616 8,305.5C 13.0514,277.191 17.8847,248.858 22.5,220.5C 17.1667,220.5 11.8333,220.5 6.5,220.5C 8.6188,207.12 10.9521,193.787 13.5,180.5 Z"/></g>
<g><path style="opacity:0.96" fill="#000000" d="M 124.5,214.5 C 146.832,211.578 162.665,220.245 172,240.5C 173.152,244.091 173.985,247.758 174.5,251.5C 174.314,253.58 173.314,255.08 171.5,256C 152.562,267.941 133.896,280.274 115.5,293C 121.742,299.93 129.076,301.264 137.5,297C 147.535,291.302 156.035,283.802 163,274.5C 161.58,288.609 159.246,302.609 156,316.5C 138.953,328.403 120.12,332.903 99.5,330C 80.0342,323.917 68.8675,310.75 66,290.5C 65.6206,261.756 77.4539,239.59 101.5,224C 108.819,219.664 116.486,216.497 124.5,214.5 Z M 123.5,246.5 C 126.85,246.335 130.183,246.502 133.5,247C 127.97,259.363 118.97,268.196 106.5,273.5C 104.345,268.707 104.845,264.04 108,259.5C 111.956,253.622 117.122,249.288 123.5,246.5 Z"/></g>
<g><path style="opacity:0.97" fill="#000000" d="M 241.5,214.5 C 266.005,212.174 277.505,223.174 276,247.5C 271.485,274.24 266.652,300.906 261.5,327.5C 247.85,328.499 234.183,328.833 220.5,328.5C 224.046,304.603 228.046,280.77 232.5,257C 231.21,250.523 227.543,248.523 221.5,251C 220.299,251.903 219.465,253.069 219,254.5C 213.959,279.079 209.459,303.746 205.5,328.5C 191.5,328.5 177.5,328.5 163.5,328.5C 169.704,290.815 176.037,253.148 182.5,215.5C 196.167,215.5 209.833,215.5 223.5,215.5C 223.335,219.182 223.501,222.848 224,226.5C 228.935,221.044 234.768,217.044 241.5,214.5 Z"/></g>
<g><path style="opacity:0.97" fill="#000000" d="M 350.5,214.5 C 356.176,214.334 361.843,214.501 367.5,215C 368.5,215.5 369.5,216 370.5,216.5C 373.876,223.425 377.876,229.925 382.5,236C 376.787,266.777 371.454,297.61 366.5,328.5C 352.151,328.833 337.818,328.499 323.5,327.5C 327.941,303.853 332.274,280.186 336.5,256.5C 335.204,249.852 331.537,248.019 325.5,251C 324.299,251.903 323.465,253.069 323,254.5C 318.562,278.857 314.062,303.19 309.5,327.5C 294.848,328.499 280.182,328.833 265.5,328.5C 271.933,291.167 278.433,253.834 285,216.5C 298.754,215.51 312.588,215.177 326.5,215.5C 326.335,218.518 326.502,221.518 327,224.5C 327.308,225.308 327.808,225.975 328.5,226.5C 334.753,220.376 342.087,216.376 350.5,214.5 Z"/></g>
<g><path style="opacity:0.962" fill="#000000" d="M 425.5,247.5 C 426.234,246.122 426.901,244.622 427.5,243C 438.874,238.076 445.874,229.576 448.5,217.5C 463.167,217.5 477.833,217.5 492.5,217.5C 490.908,229.29 488.742,240.957 486,252.5C 483.407,248.788 479.907,246.455 475.5,245.5C 471.336,246.459 469.002,249.126 468.5,253.5C 469.205,257.32 470.371,260.986 472,264.5C 476.576,269.987 480.909,275.653 485,281.5C 487.247,302.302 478.747,317.135 459.5,326C 444.322,330.452 429.322,329.785 414.5,324C 416.896,311.125 419.563,298.292 422.5,285.5C 426.593,289.929 431.259,293.596 436.5,296.5C 438.197,295.636 439.363,294.303 440,292.5C 440.738,288.739 440.405,285.072 439,281.5C 436.385,277.217 433.385,273.217 430,269.5C 425.914,262.783 424.414,255.45 425.5,247.5 Z"/></g>
<g><path style="opacity:0.828" fill="#000000" d="M 396.5,232.5 C 405.938,232.256 414.605,234.756 422.5,240C 410.107,245.811 398.774,244.144 388.5,235C 391.379,234.454 394.046,233.621 396.5,232.5 Z"/></g>
<g><path style="opacity:0.961" fill="#000000" d="M 425.5,247.5 C 420.374,273.975 415.541,300.641 411,327.5C 397.242,328.656 383.408,328.823 369.5,328C 374.972,298.141 380.638,268.308 386.5,238.5C 390.942,242.054 395.942,244.554 401.5,246C 409.586,246.761 417.586,246.261 425.5,244.5C 425.5,245.5 425.5,246.5 425.5,247.5 Z"/></g>
</svg>
